<svg width="34" height="22" viewBox="0 0 34 22" fill="none" xmlns="http://www.w3.org/2000/svg">
<path d="M33.7343 11.0001C33.7343 16.5251 29.2718 21.0407 23.6937 21.0407C18.1687 21.0407 13.6531 16.5251 13.6531 11.0001C13.6531 5.4751 18.1156 0.959473 23.6406 0.959473C29.2718 0.959473 33.7343 5.4751 33.7343 11.0001Z" fill="#FFB600"/>
<path d="M23.6937 0.959473C29.2187 0.959473 33.7343 5.4751 33.7343 11.0001C33.7343 16.5251 29.2718 21.0407 23.6937 21.0407C18.1687 21.0407 13.6531 16.5251 13.6531 11.0001" fill="#F7981D"/>
<path d="M23.6938 0.959473C29.2188 0.959473 33.7345 5.4751 33.7345 11.0001C33.7345 16.5251 29.272 21.0407 23.6938 21.0407" fill="#FF8500"/>
<path d="M10.2 0.959473C4.72813 1.0126 0.265625 5.4751 0.265625 11.0001C0.265625 16.5251 4.72812 21.0407 10.3062 21.0407C12.9094 21.0407 15.2469 20.0314 17.0531 18.4376C17.425 18.1189 17.7437 17.747 18.0625 17.3751H15.9906C15.725 17.0563 15.4594 16.6845 15.2469 16.3657H18.8063C19.0188 16.047 19.2313 15.6751 19.3906 15.3032H14.6625C14.5031 14.9845 14.3438 14.6126 14.2375 14.2407H19.7625C20.0813 13.2313 20.2938 12.1688 20.2938 11.0532C20.2938 10.3095 20.1875 9.61885 20.0812 8.92822H13.9188C13.9719 8.55635 14.0781 8.2376 14.1844 7.86572H19.7094C19.6031 7.49385 19.4438 7.12197 19.2844 6.80322H14.6094C14.7688 6.43135 14.9812 6.1126 15.1938 5.74072H18.7531C18.5406 5.36885 18.275 4.99697 17.9562 4.67822H15.9906C16.3094 4.30635 16.6281 3.9876 17 3.66885C15.2469 2.02197 12.8562 1.06572 10.2531 1.06572C10.2531 0.959473 10.2531 0.959473 10.2 0.959473Z" fill="#FF5050"/>
<path d="M0.265625 11.0003C0.265625 16.5253 4.72812 21.0409 10.3062 21.0409C12.9094 21.0409 15.2469 20.0315 17.0531 18.4378C17.425 18.119 17.7437 17.7472 18.0625 17.3753H15.9906C15.725 17.0565 15.4594 16.6847 15.2469 16.3659H18.8063C19.0188 16.0472 19.2313 15.6753 19.3906 15.3034H14.6625C14.5031 14.9847 14.3438 14.6128 14.2375 14.2409H19.7625C20.0813 13.2315 20.2938 12.169 20.2938 11.0534C20.2938 10.3097 20.1875 9.61904 20.0812 8.92842H13.9188C13.9719 8.55654 14.0781 8.23779 14.1844 7.86592H19.7094C19.6031 7.49404 19.4438 7.12217 19.2844 6.80342H14.6094C14.7688 6.43154 14.9812 6.11279 15.1938 5.74092H18.7531C18.5406 5.36904 18.275 4.99717 17.9562 4.67842H15.9906C16.3094 4.30654 16.6281 3.98779 17 3.66904C15.2469 2.02217 12.8562 1.06592 10.2531 1.06592H10.2" fill="#E52836"/>
<path d="M10.3062 21.0409C12.9093 21.0409 15.2468 20.0315 17.0531 18.4378C17.425 18.119 17.7437 17.7472 18.0625 17.3753H15.9906C15.725 17.0565 15.4593 16.6847 15.2468 16.3659H18.8062C19.0187 16.0472 19.2312 15.6753 19.3906 15.3034H14.6625C14.5031 14.9847 14.3437 14.6128 14.2375 14.2409H19.7625C20.0812 13.2315 20.2937 12.169 20.2937 11.0534C20.2937 10.3097 20.1875 9.61904 20.0812 8.92842H13.9187C13.9718 8.55654 14.0781 8.23779 14.1843 7.86592H19.7093C19.6031 7.49404 19.4437 7.12217 19.2843 6.80342H14.6093C14.7687 6.43154 14.9812 6.11279 15.1937 5.74092H18.7531C18.5406 5.36904 18.275 4.99717 17.9562 4.67842H15.9906C16.3093 4.30654 16.6281 3.98779 17 3.66904C15.2468 2.02217 12.8562 1.06592 10.2531 1.06592H10.2" fill="#CB2026"/>
<path d="M13.8656 13.55L14.0249 12.6469C13.9718 12.6469 13.8656 12.7 13.7593 12.7C13.3874 12.7 13.3343 12.4875 13.3875 12.3812L13.7062 10.5219H14.2906L14.4499 9.5125H13.9187L14.0249 8.875H12.9624C12.9624 8.875 12.325 12.3813 12.325 12.8063C12.325 13.4438 12.6968 13.7094 13.1749 13.7094C13.4937 13.7094 13.7593 13.6031 13.8656 13.55Z" fill="white"/>
<path d="M14.2375 11.85C14.2375 13.3375 15.2469 13.7094 16.0969 13.7094C16.8938 13.7094 17.2126 13.55 17.2126 13.55L17.425 12.5406C17.425 12.5406 16.8407 12.8062 16.3094 12.8062C15.1407 12.8062 15.3532 11.9562 15.3532 11.9562H17.5313C17.5313 11.9562 17.6907 11.2656 17.6907 11C17.6907 10.3094 17.3188 9.45936 16.15 9.45936C15.0344 9.35311 14.2375 10.5219 14.2375 11.85ZM16.0969 10.3094C16.6813 10.3094 16.575 11 16.575 11.0531H15.4063C15.4063 11 15.5125 10.3094 16.0969 10.3094Z" fill="white"/>
<path d="M22.8438 13.5501L23.0563 12.3813C23.0563 12.3813 22.525 12.647 22.1531 12.647C21.4094 12.647 21.0906 12.0626 21.0906 11.4251C21.0906 10.1501 21.7281 9.45947 22.4719 9.45947C23.0031 9.45947 23.4281 9.77822 23.4281 9.77822L23.5875 8.6626C23.5875 8.6626 22.95 8.39697 22.3656 8.39697C21.1437 8.39697 19.9219 9.45947 19.9219 11.4782C19.9219 12.8063 20.5594 13.7095 21.8344 13.7095C22.2594 13.7095 22.8438 13.5501 22.8438 13.5501Z" fill="white"/>
<path d="M8.02192 9.35303C7.27817 9.35303 6.74692 9.56553 6.74692 9.56553L6.58755 10.4687C6.58755 10.4687 7.06567 10.2562 7.7563 10.2562C8.12817 10.2562 8.44692 10.3093 8.44692 10.628C8.44692 10.8405 8.3938 10.8937 8.3938 10.8937C8.3938 10.8937 8.07505 10.8937 7.91567 10.8937C7.01255 10.8937 6.00317 11.2655 6.00317 12.4874C6.00317 13.4437 6.64067 13.6562 7.01255 13.6562C7.7563 13.6562 8.07505 13.178 8.12817 13.178L8.07505 13.603H9.0313L9.4563 10.6812C9.4563 9.40615 8.3938 9.35303 8.02192 9.35303ZM8.23442 11.7437C8.23442 11.903 8.12817 12.753 7.49067 12.753C7.17192 12.753 7.06567 12.4874 7.06567 12.328C7.06567 12.0624 7.22505 11.6905 8.02192 11.6905C8.1813 11.7437 8.23442 11.7437 8.23442 11.7437Z" fill="white"/>
<path d="M10.4658 13.6565C10.7314 13.6565 12.0595 13.7097 12.0595 12.2753C12.0595 10.9472 10.7845 11.2128 10.7845 10.6815C10.7845 10.4159 10.997 10.3097 11.3689 10.3097C11.5283 10.3097 12.1126 10.3628 12.1126 10.3628L12.272 9.40654C12.272 9.40654 11.9001 9.30029 11.2626 9.30029C10.4658 9.30029 9.6689 9.61904 9.6689 10.6815C9.6689 11.9034 10.997 11.7972 10.997 12.2753C10.997 12.594 10.6251 12.6472 10.3595 12.6472C9.8814 12.6472 9.40327 12.4878 9.40327 12.4878L9.2439 13.444C9.29702 13.5503 9.56265 13.6565 10.4658 13.6565Z" fill="white"/>
<path d="M31.6626 8.50342L31.4501 9.93779C31.4501 9.93779 31.0251 9.40654 30.4408 9.40654C29.4845 9.40654 28.6345 10.5753 28.6345 11.9565C28.6345 12.8065 29.0595 13.7097 29.9626 13.7097C30.6001 13.7097 30.972 13.2847 30.972 13.2847L30.9189 13.6565H31.9814L32.7783 8.55654L31.6626 8.50342ZM31.1845 11.319C31.1845 11.9034 30.9189 12.6472 30.3345 12.6472C29.9626 12.6472 29.7501 12.3284 29.7501 11.7972C29.7501 10.9472 30.122 10.4159 30.6001 10.4159C30.972 10.4159 31.1845 10.6815 31.1845 11.319Z" fill="white"/>
<path d="M2.2313 13.6034L2.8688 9.77842L2.97505 13.6034H3.7188L5.10005 9.77842L4.51567 13.6034H5.6313L6.4813 8.50342H4.72817L3.66567 11.6378L3.61255 8.50342H2.07192L1.22192 13.6034H2.2313Z" fill="white"/>
<path d="M18.7 13.6032C19.0188 11.8501 19.0719 10.4157 19.8156 10.6813C19.9219 9.99072 20.0812 9.7251 20.1875 9.45947C20.1875 9.45947 20.1344 9.45947 19.975 9.45947C19.4969 9.45947 19.125 10.097 19.125 10.097L19.2313 9.5126H18.2219L17.5312 13.6563H18.7V13.6032Z" fill="white"/>
<path d="M25.2875 9.35303C24.5438 9.35303 24.0125 9.56553 24.0125 9.56553L23.8532 10.4687C23.8532 10.4687 24.3313 10.2562 25.0219 10.2562C25.3938 10.2562 25.7126 10.3093 25.7126 10.628C25.7126 10.8405 25.6594 10.8937 25.6594 10.8937C25.6594 10.8937 25.3407 10.8937 25.1813 10.8937C24.2782 10.8937 23.2688 11.2655 23.2688 12.4874C23.2688 13.4437 23.9063 13.6562 24.2782 13.6562C25.0219 13.6562 25.3407 13.178 25.3938 13.178L25.3407 13.603H26.2969L26.7219 10.6812C26.775 9.40615 25.6594 9.35303 25.2875 9.35303ZM25.5532 11.7437C25.5532 11.903 25.4469 12.753 24.8094 12.753C24.4907 12.753 24.3844 12.4874 24.3844 12.328C24.3844 12.0624 24.5438 11.6905 25.3407 11.6905C25.5 11.7437 25.5 11.7437 25.5532 11.7437Z" fill="white"/>
<path d="M27.625 13.6032C27.9438 11.8501 27.9969 10.4157 28.7407 10.6813C28.8469 9.99072 29.0063 9.7251 29.1125 9.45947C29.1125 9.45947 29.0594 9.45947 28.9001 9.45947C28.4219 9.45947 28.05 10.097 28.05 10.097L28.1563 9.5126H27.1469L26.4563 13.6563H27.625V13.6032Z" fill="white"/>
<path d="M12.2188 12.8063C12.2188 13.4438 12.5906 13.7094 13.0687 13.7094C13.4406 13.7094 13.7594 13.6031 13.8656 13.55L14.025 12.6469C13.9719 12.6469 13.8656 12.7 13.7594 12.7C13.3875 12.7 13.3344 12.4875 13.3875 12.3812L13.7062 10.5219H14.2906L14.45 9.5125H13.9187L14.025 8.875" fill="#DCE5E5"/>
<path d="M14.7688 11.85C14.7688 13.3375 15.2469 13.7094 16.0969 13.7094C16.8938 13.7094 17.2126 13.55 17.2126 13.55L17.425 12.5406C17.425 12.5406 16.8407 12.8062 16.3094 12.8062C15.1407 12.8062 15.3532 11.9562 15.3532 11.9562H17.5313C17.5313 11.9562 17.6907 11.2656 17.6907 11C17.6907 10.3094 17.3188 9.45936 16.15 9.45936C15.0344 9.35311 14.7688 10.5219 14.7688 11.85ZM16.0969 10.3094C16.6813 10.3094 16.7875 11 16.7875 11.0531H15.4063C15.4063 11 15.5125 10.3094 16.0969 10.3094Z" fill="#DCE5E5"/>
<path d="M22.8438 13.5501L23.0563 12.3813C23.0563 12.3813 22.525 12.647 22.1531 12.647C21.4094 12.647 21.0906 12.0626 21.0906 11.4251C21.0906 10.1501 21.7281 9.45947 22.4719 9.45947C23.0031 9.45947 23.4281 9.77822 23.4281 9.77822L23.5875 8.6626C23.5875 8.6626 22.95 8.39697 22.3656 8.39697C21.1437 8.39697 20.4531 9.45947 20.4531 11.4782C20.4531 12.8063 20.5594 13.7095 21.8344 13.7095C22.2594 13.7095 22.8438 13.5501 22.8438 13.5501Z" fill="#DCE5E5"/>
<path d="M6.58755 10.522C6.58755 10.522 7.06567 10.3095 7.7563 10.3095C8.12817 10.3095 8.44692 10.3626 8.44692 10.6813C8.44692 10.8938 8.3938 10.947 8.3938 10.947C8.3938 10.947 8.07505 10.947 7.91567 10.947C7.01255 10.947 6.00317 11.3188 6.00317 12.5407C6.00317 13.497 6.64067 13.7095 7.01255 13.7095C7.7563 13.7095 8.07505 13.2313 8.12817 13.2313L8.07505 13.6563H9.0313L9.4563 10.7345C9.4563 9.5126 8.3938 9.45947 7.9688 9.45947L6.58755 10.522ZM8.76567 11.7438C8.76567 11.9032 8.12817 12.7532 7.49067 12.7532C7.17192 12.7532 7.06567 12.4876 7.06567 12.3282C7.06567 12.0626 7.22505 11.6907 8.02192 11.6907C8.1813 11.7438 8.76567 11.7438 8.76567 11.7438Z" fill="#DCE5E5"/>
<path d="M9.29688 13.5503C9.29688 13.5503 9.61562 13.6565 10.5187 13.6565C10.7844 13.6565 12.1125 13.7097 12.1125 12.2753C12.1125 10.9472 10.8375 11.2128 10.8375 10.6815C10.8375 10.4159 11.05 10.3097 11.4219 10.3097C11.5813 10.3097 12.1656 10.3628 12.1656 10.3628L12.325 9.40654C12.325 9.40654 11.9531 9.30029 11.3156 9.30029C10.5187 9.30029 10.2531 9.61904 10.2531 10.6815C10.2531 11.9034 11.05 11.7972 11.05 12.2753C11.05 12.594 10.6781 12.6472 10.4125 12.6472" fill="#DCE5E5"/>
<path d="M31.4501 9.9374C31.4501 9.9374 31.0251 9.40615 30.4407 9.40615C29.4845 9.40615 29.1657 10.5749 29.1657 11.9562C29.1657 12.8062 29.0595 13.7093 29.9626 13.7093C30.6001 13.7093 30.972 13.2843 30.972 13.2843L30.9188 13.6562H31.9813L32.7782 8.55615L31.4501 9.9374ZM31.397 11.3187C31.397 11.903 30.9188 12.6468 30.3345 12.6468C29.9626 12.6468 29.7501 12.328 29.7501 11.7968C29.7501 10.9468 30.122 10.4155 30.6001 10.4155C30.972 10.4155 31.397 10.6812 31.397 11.3187Z" fill="#DCE5E5"/>
<path d="M2.2313 13.6034L2.8688 9.77842L2.97505 13.6034H3.7188L5.10005 9.77842L4.51567 13.6034H5.6313L6.4813 8.50342H5.15317L3.66567 11.6378L3.61255 8.50342H3.02817L1.22192 13.6034H2.2313Z" fill="#DCE5E5"/>
<path d="M17.5845 13.6032H18.7001C19.0188 11.8501 19.072 10.4157 19.8157 10.6813C19.922 9.99072 20.0813 9.7251 20.1876 9.45947C20.1876 9.45947 20.1345 9.45947 19.9751 9.45947C19.497 9.45947 19.1251 10.097 19.1251 10.097L19.2313 9.5126" fill="#DCE5E5"/>
<path d="M23.8532 10.522C23.8532 10.522 24.3313 10.3095 25.0219 10.3095C25.3938 10.3095 25.7126 10.3626 25.7126 10.6813C25.7126 10.8938 25.6594 10.947 25.6594 10.947C25.6594 10.947 25.3407 10.947 25.1813 10.947C24.2782 10.947 23.2688 11.3188 23.2688 12.5407C23.2688 13.497 23.9063 13.7095 24.2782 13.7095C25.0219 13.7095 25.3407 13.2313 25.3938 13.2313L25.3407 13.6563H26.2969L26.7219 10.7345C26.7219 9.5126 25.6594 9.45947 25.2344 9.45947L23.8532 10.522ZM26.0313 11.7438C26.0313 11.9032 25.3938 12.7532 24.7563 12.7532C24.4375 12.7532 24.3313 12.4876 24.3313 12.3282C24.3313 12.0626 24.4907 11.6907 25.2875 11.6907C25.5 11.7438 26.0313 11.7438 26.0313 11.7438Z" fill="#DCE5E5"/>
<path d="M26.5095 13.6032H27.6251C27.9439 11.8501 27.997 10.4157 28.7408 10.6813C28.847 9.99072 29.0064 9.7251 29.1126 9.45947C29.1126 9.45947 29.0595 9.45947 28.9001 9.45947C28.422 9.45947 28.0501 10.097 28.0501 10.097L28.1564 9.5126" fill="#DCE5E5"/>
</svg>
