<svg width="21" height="21" viewBox="0 0 21 21" fill="none" xmlns="http://www.w3.org/2000/svg">
<path d="M6.22203 18.3506C4.94645 18.3547 3.66676 18.3588 2.39117 18.3547C2.04664 18.3547 1.82516 18.0512 1.88258 17.6984C2.09586 16.3408 2.29684 14.9832 2.51012 13.6297C2.70289 12.4115 2.91207 11.1933 3.10484 9.97108C3.2443 9.08924 3.36734 8.20741 3.5068 7.32557C3.71188 6.02538 3.92516 4.72518 4.13434 3.42499C4.25328 2.6785 4.36402 1.93202 4.47887 1.18553C4.5527 0.697447 4.93824 0.36522 5.43863 0.36522C7.59606 0.36522 9.75758 0.348814 11.915 0.373424C13.0921 0.385728 14.2611 0.533384 15.3316 1.07889C16.4431 1.6367 17.1199 2.54315 17.3414 3.77362C17.4439 4.34784 17.407 4.92206 17.2963 5.49627C16.8369 5.26249 16.3529 5.11073 15.8525 5.01229C15.2291 4.88924 14.5892 4.85643 13.9535 4.84823C12.3498 4.83182 10.742 4.83592 9.13824 4.84823C8.79781 4.85233 8.4943 4.99178 8.35895 5.34042C8.29742 5.50038 8.27691 5.68085 8.25231 5.85721C8.14156 6.52987 8.03492 7.20663 7.92828 7.88338C7.84625 8.40428 7.75602 8.92518 7.67809 9.44608C7.57965 10.1064 7.49352 10.7709 7.36637 11.4271C7.32535 11.6445 7.23512 11.866 7.30074 12.0998C7.25152 12.2474 7.20641 12.3951 7.1818 12.551C7.06695 13.3098 6.94801 14.0685 6.82906 14.8273C6.68551 15.7461 6.55016 16.6689 6.3943 17.5877C6.34508 17.842 6.36149 18.1127 6.22203 18.3506Z" fill="#012D8A"/>
<path d="M6.22223 18.3505C6.36168 18.1167 6.34528 17.8419 6.38629 17.5876C6.54215 16.6688 6.6775 15.7501 6.82106 14.8272C6.94 14.0685 7.05895 13.3097 7.17379 12.5509C7.1984 12.395 7.24352 12.2474 7.29274 12.0997C7.51422 11.7552 7.82184 11.6034 8.2402 11.6075C9.2861 11.6075 10.332 11.6608 11.3738 11.5296C12.3048 11.4147 13.1949 11.1769 14.0234 10.7339C15.299 10.0489 16.1685 9.00303 16.714 7.67822C16.9724 7.04658 17.1775 6.39443 17.2636 5.71357C17.2718 5.69717 17.2759 5.68076 17.2841 5.66846C17.2923 5.62744 17.3006 5.58643 17.3088 5.54541C18.2849 6.06221 18.8058 6.89072 18.9453 7.97353C19.0601 8.86357 18.9248 9.729 18.7033 10.5903C18.5269 11.2753 18.2562 11.9192 17.8707 12.5099C17.2431 13.4778 16.3695 14.1505 15.2826 14.536C14.7166 14.737 14.1341 14.8519 13.5394 14.9216C13.0431 14.979 12.5468 14.979 12.0506 14.9831C11.5502 14.9831 11.2302 15.2579 11.1605 15.7501C11.0088 16.7878 10.857 17.8255 10.6765 18.8632C10.615 19.2159 10.5658 19.5728 10.5043 19.9214C10.4263 20.3479 10.1228 20.6022 9.69215 20.6022C8.64625 20.6022 7.60036 20.6022 6.55446 20.6022C6.15661 20.6022 5.96383 20.3726 6.02946 19.987C6.10739 19.5112 6.18532 19.0396 6.26325 18.5638C6.27555 18.4858 6.29606 18.4079 6.22223 18.3505Z" fill="#019AE0"/>
<path d="M17.3127 5.53719C17.3045 5.5782 17.2962 5.61922 17.288 5.66023C17.2798 5.67664 17.2757 5.69305 17.2675 5.70535C17.1814 6.38621 16.9763 7.03836 16.7179 7.67C16.1724 8.9948 15.3029 10.0407 14.0273 10.7257C13.1988 11.1686 12.3046 11.4065 11.3777 11.5214C10.3359 11.6485 9.29 11.5993 8.2441 11.5993C7.82574 11.5993 7.51812 11.747 7.29664 12.0915C7.23101 11.8618 7.32125 11.6362 7.36226 11.4188C7.48531 10.7626 7.57555 10.0981 7.67398 9.43777C7.75191 8.91688 7.84215 8.39598 7.92418 7.87508C8.03082 7.19832 8.13746 6.52566 8.2482 5.84891C8.27691 5.67664 8.29332 5.49617 8.35484 5.33211C8.49019 4.98348 8.79371 4.83992 9.13414 4.83992C10.7378 4.82762 12.3457 4.82352 13.9494 4.83992C14.5851 4.84813 15.2209 4.88094 15.8484 5.00399C16.3488 5.10242 16.8369 5.25418 17.2921 5.48797C17.3003 5.51258 17.3086 5.52488 17.3127 5.53719Z" fill="#001F6B"/>
<path d="M17.2717 5.70967C17.2799 5.69326 17.284 5.67686 17.2922 5.66455C17.284 5.67686 17.2799 5.69326 17.2717 5.70967Z" fill="#012D8A"/>
</svg>
